<svg width="119" height="45" viewBox="0 0 119 45" fill="none" xmlns="http://www.w3.org/2000/svg">
  <path
    d="M11.9956 31.3252L0 0.74584H12.9279L19.9512 26.7881H15.5383L22.4995 0.74584H35.3652L23.3696 31.3252H11.9956ZM35.6138 31.3252V0.74584H47.7959V31.3252H35.6138ZM54.4463 31.3252V13.798C54.4463 12.7621 54.1355 11.9438 53.514 11.343C52.8924 10.7422 52.1052 10.4417 51.1521 10.4417C50.4892 10.4417 49.8987 10.5764 49.3808 10.8457C48.8628 11.1151 48.4692 11.4984 48.1999 11.9956C47.9305 12.4928 47.7959 13.0936 47.7959 13.798L43.0722 12.0577C43.0722 9.5716 43.6212 7.43767 44.7193 5.65595C45.8173 3.87422 47.2986 2.50685 49.1632 1.55383C51.0278 0.600815 53.141 0.124307 55.5029 0.124307C57.5746 0.124307 59.4496 0.621532 61.1277 1.61598C62.8059 2.61044 64.1422 3.98817 65.1366 5.74918C66.1311 7.51019 66.6283 9.59232 66.6283 11.9956V31.3252H54.4463ZM73.2787 31.3252V13.798C73.2787 12.7621 72.9679 11.9438 72.3464 11.343C71.7249 10.7422 70.9376 10.4417 69.9846 10.4417C69.3216 10.4417 68.7312 10.5764 68.2132 10.8457C67.6953 11.1151 67.3016 11.4984 67.0323 11.9956C66.763 12.4928 66.6283 13.0936 66.6283 13.798L59.4807 13.8602C59.4807 11.0011 60.0504 8.54607 61.1899 6.49502C62.3294 4.44396 63.9143 2.86941 65.9446 1.77137C67.975 0.673327 70.2953 0.124307 72.9058 0.124307C75.3505 0.124307 77.5155 0.642251 79.4008 1.67814C81.2861 2.71403 82.7674 4.2057 83.8448 6.15317C84.9221 8.10064 85.4607 10.4417 85.4607 13.1765V31.3252H73.2787ZM103.609 32.0711C100.295 32.0711 97.3113 31.3874 94.6594 30.02C92.0075 28.6527 89.9151 26.757 88.3819 24.333C86.8488 21.909 86.0823 19.1639 86.0823 16.0977C86.0823 12.99 86.8592 10.2242 88.413 7.80023C89.9669 5.37626 92.0801 3.47022 94.7527 2.08213C97.4252 0.694045 100.44 0 103.796 0C106.199 0 108.364 0.37292 110.291 1.11876C112.218 1.8646 114.01 3.00407 115.667 4.53719L108.022 12.182C107.484 11.6848 106.883 11.3119 106.22 11.0633C105.557 10.8147 104.749 10.6904 103.796 10.6904C102.802 10.6904 101.9 10.9079 101.092 11.343C100.284 11.778 99.6317 12.3892 99.1345 13.1765C98.6372 13.9638 98.3886 14.8961 98.3886 15.9734C98.3886 17.0507 98.6372 17.9934 99.1345 18.8014C99.6317 19.6094 100.295 20.2412 101.123 20.697C101.952 21.1528 102.843 21.3807 103.796 21.3807C104.873 21.3807 105.764 21.215 106.469 20.8835C107.173 20.552 107.794 20.0962 108.333 19.5161L115.978 27.161C114.196 28.8184 112.332 30.0511 110.384 30.8591C108.437 31.6671 106.178 32.0711 103.609 32.0711Z"
    fill="white"
  />
  <rect
    x="2.52637"
    y="36.9893"
    width="115.986"
    height="7.03765"
    fill="url(#paint0_linear_logo_voyager)"
  />
  <path
    d="M40.7413 41.9843C40.5519 41.9843 40.3732 41.9504 40.2054 41.8828C40.0403 41.8124 39.8968 41.7136 39.775 41.5864C39.6559 41.4592 39.5666 41.3089 39.507 41.1357L40.0227 40.9043C40.0985 41.0694 40.2027 41.1993 40.3353 41.294C40.4706 41.3888 40.6195 41.4361 40.7819 41.4361C40.8685 41.4361 40.943 41.4226 41.0052 41.3955C41.0675 41.3685 41.1162 41.3319 41.1514 41.2859C41.1866 41.2372 41.2042 41.1804 41.2042 41.1154C41.2042 41.045 41.1825 40.9855 41.1392 40.9367C41.0959 40.8853 41.0282 40.8447 40.9362 40.8149L40.3434 40.62C40.1025 40.5416 39.9212 40.4306 39.7994 40.2871C39.6776 40.1409 39.6167 39.9664 39.6167 39.7633C39.6167 39.5847 39.66 39.4277 39.7466 39.2924C39.8359 39.157 39.9591 39.0515 40.1161 38.9757C40.2758 38.8999 40.4585 38.862 40.6642 38.862C40.8455 38.862 41.0134 38.8931 41.1676 38.9554C41.3219 39.0176 41.4546 39.1056 41.5655 39.2193C41.6792 39.333 41.7645 39.4697 41.8213 39.6294L41.3098 39.8608C41.2529 39.72 41.1676 39.6104 41.054 39.5319C40.9403 39.4507 40.8104 39.4101 40.6642 39.4101C40.5803 39.4101 40.5058 39.4236 40.4409 39.4507C40.3759 39.4778 40.3258 39.517 40.2906 39.5685C40.2555 39.6172 40.2379 39.674 40.2379 39.739C40.2379 39.8094 40.2609 39.8716 40.3069 39.9258C40.3529 39.9772 40.4219 40.0178 40.514 40.0476L41.0946 40.2343C41.3382 40.3128 41.5195 40.4225 41.6386 40.5632C41.7604 40.704 41.8213 40.8758 41.8213 41.0788C41.8213 41.2548 41.7753 41.4118 41.6833 41.5498C41.5913 41.6852 41.464 41.7921 41.3016 41.8706C41.1419 41.9464 40.9552 41.9843 40.7413 41.9843ZM47.1258 41.9843C46.8876 41.9843 46.6751 41.9342 46.4884 41.834C46.3016 41.7339 46.1541 41.5972 46.0458 41.424C45.9402 41.248 45.8874 41.0491 45.8874 40.8271V38.9107H46.5168V40.7865C46.5168 40.9056 46.5425 41.0139 46.5939 41.1113C46.6481 41.2061 46.7211 41.2805 46.8132 41.3346C46.9052 41.3888 47.0094 41.4158 47.1258 41.4158C47.2449 41.4158 47.3491 41.3888 47.4384 41.3346C47.5305 41.2805 47.6022 41.2061 47.6536 41.1113C47.7078 41.0139 47.7348 40.9056 47.7348 40.7865V38.9107H48.3642V40.8271C48.3642 41.0491 48.31 41.248 48.2018 41.424C48.0962 41.5972 47.95 41.7339 47.7633 41.834C47.5765 41.9342 47.364 41.9843 47.1258 41.9843ZM52.5162 41.9355V38.9107H53.7952C54.0036 38.9107 54.1823 38.9459 54.3311 39.0163C54.48 39.0867 54.5937 39.1882 54.6722 39.3208C54.7507 39.4507 54.7899 39.6091 54.7899 39.7958C54.7899 39.9285 54.7534 40.0557 54.6803 40.1775C54.6072 40.2966 54.4868 40.3967 54.319 40.4779V40.1694C54.4787 40.2316 54.6018 40.3061 54.6884 40.3927C54.775 40.4793 54.8346 40.574 54.8671 40.6769C54.8996 40.777 54.9158 40.8826 54.9158 40.9936C54.9158 41.2913 54.817 41.5228 54.6194 41.6879C54.4218 41.853 54.1471 41.9355 53.7952 41.9355H52.5162ZM53.1456 41.3874H53.8683C53.9955 41.3874 54.097 41.3509 54.1728 41.2778C54.2486 41.2047 54.2865 41.11 54.2865 40.9936C54.2865 40.8745 54.2486 40.7784 54.1728 40.7053C54.097 40.6322 53.9955 40.5957 53.8683 40.5957H53.1456V41.3874ZM53.1456 40.0476H53.8399C53.9373 40.0476 54.0144 40.0205 54.0713 39.9664C54.1308 39.9095 54.1606 39.8351 54.1606 39.743C54.1606 39.651 54.1308 39.5779 54.0713 39.5238C54.0144 39.467 53.9373 39.4385 53.8399 39.4385H53.1456V40.0476ZM58.7504 41.9355L59.7735 38.9107H60.6099L61.6331 41.9355H60.9469L60.7439 41.3184H59.6355L59.4325 41.9355H58.7504ZM59.8101 40.7703H60.5693L60.1065 39.3411H60.277L59.8101 40.7703ZM66.6623 41.9843C66.4728 41.9843 66.2941 41.9504 66.1263 41.8828C65.9612 41.8124 65.8177 41.7136 65.6959 41.5864C65.5768 41.4592 65.4875 41.3089 65.428 41.1357L65.9436 40.9043C66.0194 41.0694 66.1236 41.1993 66.2562 41.294C66.3916 41.3888 66.5404 41.4361 66.7029 41.4361C66.7895 41.4361 66.8639 41.4226 66.9262 41.3955C66.9884 41.3685 67.0371 41.3319 67.0723 41.2859C67.1075 41.2372 67.1251 41.1804 67.1251 41.1154C67.1251 41.045 67.1035 40.9855 67.0602 40.9367C67.0168 40.8853 66.9492 40.8447 66.8571 40.8149L66.2644 40.62C66.0235 40.5416 65.8421 40.4306 65.7203 40.2871C65.5985 40.1409 65.5376 39.9664 65.5376 39.7633C65.5376 39.5847 65.5809 39.4277 65.6675 39.2924C65.7568 39.157 65.88 39.0515 66.037 38.9757C66.1967 38.8999 66.3794 38.862 66.5851 38.862C66.7665 38.862 66.9343 38.8931 67.0886 38.9554C67.2429 39.0176 67.3755 39.1056 67.4865 39.2193C67.6002 39.333 67.6854 39.4697 67.7423 39.6294L67.2307 39.8608C67.1738 39.72 67.0886 39.6104 66.9749 39.5319C66.8612 39.4507 66.7313 39.4101 66.5851 39.4101C66.5012 39.4101 66.4268 39.4236 66.3618 39.4507C66.2968 39.4778 66.2468 39.517 66.2116 39.5685C66.1764 39.6172 66.1588 39.674 66.1588 39.739C66.1588 39.8094 66.1818 39.8716 66.2278 39.9258C66.2738 39.9772 66.3429 40.0178 66.4349 40.0476L67.0155 40.2343C67.2591 40.3128 67.4405 40.4225 67.5596 40.5632C67.6814 40.704 67.7423 40.8758 67.7423 41.0788C67.7423 41.2548 67.6962 41.4118 67.6042 41.5498C67.5122 41.6852 67.385 41.7921 67.2226 41.8706C67.0629 41.9464 66.8761 41.9843 66.6623 41.9843ZM72.389 41.9355V39.4588H71.6216V38.9107H73.7735V39.4588H73.0183V41.9355H72.389ZM77.3138 41.9355L78.337 38.9107H79.1734L80.1965 41.9355H79.5103L79.3073 41.3184H78.1989L77.9959 41.9355H77.3138ZM78.3735 40.7703H79.1328L78.6699 39.3411H78.8404L78.3735 40.7703ZM85.2257 41.9843C85.0362 41.9843 84.8576 41.9504 84.6897 41.8828C84.5246 41.8124 84.3812 41.7136 84.2594 41.5864C84.1403 41.4592 84.0509 41.3089 83.9914 41.1357L84.507 40.9043C84.5828 41.0694 84.687 41.1993 84.8197 41.294C84.955 41.3888 85.1039 41.4361 85.2663 41.4361C85.3529 41.4361 85.4273 41.4226 85.4896 41.3955C85.5519 41.3685 85.6006 41.3319 85.6358 41.2859C85.671 41.2372 85.6885 41.1804 85.6885 41.1154C85.6885 41.045 85.6669 40.9855 85.6236 40.9367C85.5803 40.8853 85.5126 40.8447 85.4206 40.8149L84.8278 40.62C84.5869 40.5416 84.4055 40.4306 84.2837 40.2871C84.1619 40.1409 84.101 39.9664 84.101 39.7633C84.101 39.5847 84.1443 39.4277 84.2309 39.2924C84.3203 39.157 84.4434 39.0515 84.6004 38.9757C84.7601 38.8999 84.9428 38.862 85.1485 38.862C85.3299 38.862 85.4977 38.8931 85.652 38.9554C85.8063 39.0176 85.9389 39.1056 86.0499 39.2193C86.1636 39.333 86.2489 39.4697 86.3057 39.6294L85.7941 39.8608C85.7373 39.72 85.652 39.6104 85.5383 39.5319C85.4246 39.4507 85.2947 39.4101 85.1485 39.4101C85.0646 39.4101 84.9902 39.4236 84.9252 39.4507C84.8603 39.4778 84.8102 39.517 84.775 39.5685C84.7398 39.6172 84.7222 39.674 84.7222 39.739C84.7222 39.8094 84.7452 39.8716 84.7912 39.9258C84.8373 39.9772 84.9063 40.0178 84.9983 40.0476L85.5789 40.2343C85.8225 40.3128 86.0039 40.4225 86.123 40.5632C86.2448 40.704 86.3057 40.8758 86.3057 41.0788C86.3057 41.2548 86.2597 41.4118 86.1676 41.5498C86.0756 41.6852 85.9484 41.7921 85.786 41.8706C85.6263 41.9464 85.4395 41.9843 85.2257 41.9843Z"
    fill="#2E0F70"
  />
  <defs>
    <linearGradient
      id="paint0_linear_logo_voyager"
      x1="2.52637"
      y1="40.5081"
      x2="118.512"
      y2="40.5081"
      gradientUnits="userSpaceOnUse"
    >
      <stop stop-color="#ED8936" stop-opacity="0" />
      <stop offset="0.12" stop-color="#ED8936" stop-opacity="0.85" />
      <stop offset="0.35" stop-color="#AE8EFF" stop-opacity="0.85" />
      <stop offset="0.55" stop-color="#8460E5" stop-opacity="0.85" />
      <stop offset="0.75" stop-color="#5A35C2" stop-opacity="0.85" />
      <stop offset="1" stop-color="#5A35C2" stop-opacity="0" />
    </linearGradient>
  </defs>
</svg>
